HIERARCHY
ROOT Hips
{
	OFFSET 0.000000 103.266502 0.000000
	CHANNELS 6 Xposition Yposition Zposition Xrotation Yrotation Zrotation 
	JOINT Spine
	{
		OFFSET -0.002400 12.777504 0.315300
		CHANNELS 3 Xrotation Yrotation Zrotation
		JOINT Spine1
		{
			OFFSET -0.002067 5.816869 0.032633
			CHANNELS 3 Xrotation Yrotation Zrotation
			JOINT Spine1_split
			{
				OFFSET -0.002067 5.816869 0.032633
				CHANNELS 3 Xrotation Yrotation Zrotation
				JOINT Spine2
				{
					OFFSET -0.002067 5.816869 0.032633
					CHANNELS 3 Xrotation Yrotation Zrotation
					JOINT Neck
					{
						OFFSET -0.003700 21.199493 -0.826900
						CHANNELS 3 Xrotation Yrotation Zrotation
						JOINT Head
						{
							OFFSET 0.000000 20.442200 4.834800
							CHANNELS 3 Xrotation Yrotation Zrotation
							JOINT HeadTop_End
							{
								OFFSET 0.000000 34.668396 4.968400
								CHANNELS 3 Xrotation Yrotation Zrotation
								End Site
								{
									OFFSET 0.000000 0.000000 0.000000
								}
							}
						}
					}
					JOINT LeftShoulder
					{
						OFFSET 3.288150 8.794197 -1.372250
						CHANNELS 3 Xrotation Yrotation Zrotation
						JOINT LeftShoulder_split
						{
							OFFSET 3.288150 8.794197 -1.372250
							CHANNELS 3 Xrotation Yrotation Zrotation
							JOINT LeftArm
							{
								OFFSET 11.953299 -2.279007 -0.146200
								CHANNELS 3 Xrotation Yrotation Zrotation
								JOINT LeftForeArm
								{
									OFFSET 18.448900 0.000000 0.000000
									CHANNELS 3 Xrotation Yrotation Zrotation
									JOINT LeftHand
									{
										OFFSET 29.527798 0.000000 0.000000
										CHANNELS 3 Xrotation Yrotation Zrotation
										JOINT LeftHandThumb1
										{
											OFFSET 10.739754 -2.369614 9.225399
											CHANNELS 3 Xrotation Yrotation Zrotation
											JOINT LeftHandThumb2
											{
												OFFSET 4.926170 -2.844131 2.844125
												CHANNELS 3 Xrotation Yrotation Zrotation
												JOINT LeftHandThumb3
												{
													OFFSET 4.614891 -2.664413 2.664409
													CHANNELS 3 Xrotation Yrotation Zrotation
													JOINT LeftHandThumb4
													{
														OFFSET 4.432465 -2.559082 2.559083
														CHANNELS 3 Xrotation Yrotation Zrotation
														End Site
														{
															OFFSET 0.000000 0.000000 0.000000
														}
													}
												}
											}
										}
										JOINT LeftHandIndex1
										{
											OFFSET 26.467674 0.187653 6.405298
											CHANNELS 3 Xrotation Yrotation Zrotation
											JOINT LeftHandIndex2
											{
												OFFSET 8.792900 0.000000 0.000000
												CHANNELS 3 Xrotation Yrotation Zrotation
												JOINT LeftHandIndex3
												{
													OFFSET 10.075203 0.000000 0.000000
													CHANNELS 3 Xrotation Yrotation Zrotation
													End Site
													{
														OFFSET 0.000000 0.000000 0.000000
													}
												}
											}
										}
										JOINT LeftHandMiddle1
										{
											OFFSET 25.764404 0.000000 0.000000
											CHANNELS 3 Xrotation Yrotation Zrotation
											JOINT LeftHandMiddle2
											{
												OFFSET 9.393974 0.000000 0.000000
												CHANNELS 3 Xrotation Yrotation Zrotation
												JOINT LeftHandMiddle3
												{
													OFFSET 10.771950 0.000000 0.000000
													CHANNELS 3 Xrotation Yrotation Zrotation
													End Site
													{
														OFFSET 0.000000 0.000000 0.000000
													}
												}
											}
										}
										JOINT LeftHandRing1
										{
											OFFSET 24.660927 0.144547 -6.225808
											CHANNELS 3 Xrotation Yrotation Zrotation
											JOINT LeftHandRing2
											{
												OFFSET 9.393799 0.000000 0.000000
												CHANNELS 3 Xrotation Yrotation Zrotation
												JOINT LeftHandRing3
												{
													OFFSET 9.928497 0.000000 0.000000
													CHANNELS 3 Xrotation Yrotation Zrotation
													End Site
													{
														OFFSET 0.000000 0.000000 0.000000
													}
												}
											}
										}
										JOINT LeftHandPinky1
										{
											OFFSET 23.655350 0.125290 -12.815412
											CHANNELS 3 Xrotation Yrotation Zrotation
											JOINT LeftHandPinky2
											{
												OFFSET 8.425102 0.000000 0.000000
												CHANNELS 3 Xrotation Yrotation Zrotation
												JOINT LeftHandPinky3
												{
													OFFSET 8.147003 0.000000 0.000000
													CHANNELS 3 Xrotation Yrotation Zrotation
													End Site
													{
														OFFSET 0.000000 0.000000 0.000000
													}
												}
											}
										}
									}
								}
							}
						}
					}
					JOINT RightShoulder
					{
						OFFSET -3.249400 8.794197 -1.372250
						CHANNELS 3 Xrotation Yrotation Zrotation
						JOINT RightShoulder_split
						{
							OFFSET -3.249400 8.794197 -1.372250
							CHANNELS 3 Xrotation Yrotation Zrotation
							JOINT RightArm
							{
								OFFSET -11.953299 -2.279007 -0.146200
								CHANNELS 3 Xrotation Yrotation Zrotation
								JOINT RightForeArm
								{
									OFFSET -18.448900 0.000000 0.000000
									CHANNELS 3 Xrotation Yrotation Zrotation
									JOINT RightHand
									{
										OFFSET -29.527802 0.000000 0.000000
										CHANNELS 3 Xrotation Yrotation Zrotation
										JOINT RightHandThumb1
										{
											OFFSET -10.739754 -2.369614 9.225399
											CHANNELS 3 Xrotation Yrotation Zrotation
											JOINT RightHandThumb2
											{
												OFFSET -4.926170 -2.844131 2.844125
												CHANNELS 3 Xrotation Yrotation Zrotation
												JOINT RightHandThumb3
												{
													OFFSET -4.614891 -2.664413 2.664409
													CHANNELS 3 Xrotation Yrotation Zrotation
													JOINT RightHandThumb4
													{
														OFFSET -4.432465 -2.559082 2.559083
														CHANNELS 3 Xrotation Yrotation Zrotation
														End Site
														{
															OFFSET 0.000000 0.000000 0.000000
														}
													}
												}
											}
										}
										JOINT RightHandIndex1
										{
											OFFSET -26.467674 0.187653 6.405298
											CHANNELS 3 Xrotation Yrotation Zrotation
											JOINT RightHandIndex2
											{
												OFFSET -8.792900 0.000000 0.000000
												CHANNELS 3 Xrotation Yrotation Zrotation
												JOINT RightHandIndex3
												{
													OFFSET -10.075203 0.000000 0.000000
													CHANNELS 3 Xrotation Yrotation Zrotation
													End Site
													{
														OFFSET 0.000000 0.000000 0.000000
													}
												}
											}
										}
										JOINT RightHandMiddle1
										{
											OFFSET -25.764404 0.000000 0.000000
											CHANNELS 3 Xrotation Yrotation Zrotation
											JOINT RightHandMiddle2
											{
												OFFSET -9.393974 0.000000 0.000000
												CHANNELS 3 Xrotation Yrotation Zrotation
												JOINT RightHandMiddle3
												{
													OFFSET -10.771950 0.000000 0.000000
													CHANNELS 3 Xrotation Yrotation Zrotation
													End Site
													{
														OFFSET 0.000000 0.000000 0.000000
													}
												}
											}
										}
										JOINT RightHandRing1
										{
											OFFSET -24.660927 0.144547 -6.225808
											CHANNELS 3 Xrotation Yrotation Zrotation
											JOINT RightHandRing2
											{
												OFFSET -9.393799 0.000000 0.000000
												CHANNELS 3 Xrotation Yrotation Zrotation
												JOINT RightHandRing3
												{
													OFFSET -9.928497 0.000000 0.000000
													CHANNELS 3 Xrotation Yrotation Zrotation
													End Site
													{
														OFFSET 0.000000 0.000000 0.000000
													}
												}
											}
										}
										JOINT RightHandPinky1
										{
											OFFSET -23.655350 0.125290 -12.815412
											CHANNELS 3 Xrotation Yrotation Zrotation
											JOINT RightHandPinky2
											{
												OFFSET -8.425102 0.000000 0.000000
												CHANNELS 3 Xrotation Yrotation Zrotation
												JOINT RightHandPinky3
												{
													OFFSET -8.147003 0.000000 0.000000
													CHANNELS 3 Xrotation Yrotation Zrotation
													End Site
													{
														OFFSET 0.000000 0.000000 0.000000
													}
												}
											}
										}
									}
								}
							}
						}
					}
				}
			}
		}
	}
	JOINT LeftUpLeg
	{
		OFFSET 11.394100 -6.187798 -0.413800
		CHANNELS 3 Xrotation Yrotation Zrotation
		JOINT LeftLeg
		{
			OFFSET 0.430247 -32.302673 3.732800
			CHANNELS 3 Xrotation Yrotation Zrotation
			JOINT LeftFoot
			{
				OFFSET -0.430247 -48.264931 -6.423300
				CHANNELS 3 Xrotation Yrotation Zrotation
				JOINT LeftToeBase
				{
					OFFSET 4.230900 -16.068199 23.438400
					CHANNELS 3 Xrotation Yrotation Zrotation
					JOINT LeftToe_End
					{
						OFFSET 4.510700 0.695400 19.974600
						CHANNELS 3 Xrotation Yrotation Zrotation
						End Site
						{
							OFFSET 0.000000 0.000000 0.000000
						}
					}
				}
			}
		}
	}
	JOINT RightUpLeg
	{
		OFFSET -11.333700 -6.187798 -0.413800
		CHANNELS 3 Xrotation Yrotation Zrotation
		JOINT RightLeg
		{
			OFFSET -0.430392 -32.302628 3.733000
			CHANNELS 3 Xrotation Yrotation Zrotation
			JOINT RightFoot
			{
				OFFSET 0.430392 -48.264973 -6.423500
				CHANNELS 3 Xrotation Yrotation Zrotation
				JOINT RightToeBase
				{
					OFFSET -4.230900 -16.068199 23.438400
					CHANNELS 3 Xrotation Yrotation Zrotation
					JOINT RightToe_End
					{
						OFFSET -4.510700 0.695400 19.974600
						CHANNELS 3 Xrotation Yrotation Zrotation
						End Site
						{
							OFFSET 0.000000 0.000000 0.000000
						}
					}
				}
			}
		}
	}
}
MOTION
Frames: 6
Frame Time: 0.016667
-0.487574 79.015785 0.610033 -0.013188 -7.785704 -16.137696 5.600210 1.178518 0.024415 4.651098 0.654911 1.633865 0.000000 0.000000 0.000000 4.657230 0.491971 1.673782 0.396501 1.761070 0.948531 -15.762635 26.254658 5.119160 -0.000000 -0.000001 0.000000 0.472290 0.823556 -6.563489 0.000000 0.000000 0.000000 41.287052 -17.715622 -58.148713 0.000005 -58.979817 -0.000011 -18.820685 -33.533493 26.792954 5.358057 -0.141366 9.666156 3.545755 27.155821 3.560561 3.579363 15.544290 0.630978 0.000000 0.000000 0.000002 -1.578835 0.825936 -19.703492 0.405080 2.870986 -21.069218 0.000000 0.000000 -0.000000 0.409502 7.162245 -25.647949 0.416485 2.993239 -22.185353 0.000001 0.000000 -0.000002 2.386873 10.570840 -32.882361 0.471669 2.115271 -18.421990 0.000003 -0.000003 -0.000005 2.967941 13.388247 -36.938906 0.139968 1.667046 -18.441907 -0.000001 -0.000002 -0.000003 0.625967 0.265418 11.021709 0.000000 0.000000 0.000000 -6.297834 23.802320 54.826885 0.000224 96.647013 -0.000278 -19.103278 24.520616 -3.410953 0.789359 -8.211542 -4.825404 0.020109 -13.361253 -9.371031 3.749500 -15.817801 -0.052394 0.000000 -0.000000 0.000000 -1.070481 -2.247359 17.231254 0.405453 -2.871952 21.079301 -0.000002 -0.000000 -0.000002 0.439000 -7.256191 26.595145 0.417441 -2.995672 22.211563 -0.000001 0.000001 0.000001 2.698251 -11.184229 32.166089 0.472418 -2.116941 18.440358 0.000000 0.000000 0.000001 4.305373 -16.260319 34.920975 0.139791 -1.666347 18.434715 -0.000001 -0.000000 0.000003 -80.453754 8.462022 9.004228 105.603870 7.346718 0.116070 23.648299 3.082175 21.167272 -48.683895 -5.040882 4.213697 -0.000000 -0.000000 0.000000 -38.137352 4.032787 -1.135544 65.674400 8.586225 0.513256 -30.200484 -1.352400 11.422322 -5.746946 0.000001 -0.000004 0.000000 -0.000000 0.000000 
0.137701 79.129669 8.927552 -0.147104 -6.325688 -15.827927 5.539142 3.156761 0.186909 4.641765 1.992369 1.349663 0.000000 0.000000 0.000000 4.668627 1.846767 1.438062 0.764415 1.195515 1.133492 -15.802204 22.159427 4.754597 -0.000000 0.000000 0.000000 0.417704 0.977522 -5.230734 0.000000 0.000000 0.000000 51.088104 -19.833360 -55.708566 0.000010 -63.791569 0.000026 -19.494465 -33.921376 26.202672 5.358057 -0.141371 9.666156 3.545754 27.155826 3.560561 3.579363 15.544291 0.630975 0.000000 -0.000000 0.000002 -1.578835 0.825931 -19.703492 0.405083 2.870988 -21.069216 -0.000001 -0.000001 0.000002 0.409503 7.162247 -25.647946 0.416487 2.993239 -22.185349 -0.000002 0.000001 -0.000002 2.386873 10.570841 -32.882368 0.471673 2.115272 -18.421988 0.000002 0.000000 -0.000002 2.967941 13.388245 -36.938910 0.139977 1.667043 -18.441903 -0.000002 0.000000 -0.000002 0.552487 2.485359 8.941592 0.000000 0.000000 0.000000 -15.548120 21.166650 54.791511 0.000120 101.079123 -0.000108 -18.201872 23.757841 -3.922279 0.789357 -8.211548 -4.825404 0.020108 -13.361248 -9.371031 3.749502 -15.817801 -0.052395 0.000001 -0.000000 0.000000 -1.070483 -2.247362 17.231252 0.405458 -2.871948 21.079299 -0.000001 -0.000000 -0.000000 0.438999 -7.256194 26.595143 0.417443 -2.995675 22.211553 0.000002 0.000001 0.000000 2.698248 -11.184234 32.166093 0.472421 -2.116942 18.440356 0.000000 -0.000001 -0.000000 4.305374 -16.260321 34.920975 0.139792 -1.666348 18.434713 0.000002 0.000001 0.000000 -84.222359 8.126143 6.883238 99.668593 7.424088 0.248911 20.429062 3.569135 20.141000 -37.724528 -1.866176 2.738817 0.000000 0.000000 -0.000000 -29.039857 3.096428 -4.388538 63.656530 6.645921 0.669603 -34.457819 1.018803 13.018230 -9.933639 0.000000 -0.000004 -0.000001 -0.000000 -0.000000 
0.868799 79.448586 17.541012 0.031457 -4.293056 -15.194041 5.226689 5.279826 -0.112564 4.448706 3.149789 1.037701 0.000000 0.000000 0.000000 4.488397 3.024019 1.166610 1.152615 0.559719 1.495089 -15.349718 17.467123 4.353243 -0.000000 0.000001 -0.000000 0.360099 0.455522 -3.526979 0.000000 0.000000 0.000000 59.840401 -20.330464 -53.492928 0.000011 -68.582175 -0.000006 -20.234654 -34.438022 25.571412 5.358058 -0.141366 9.666155 3.545755 27.155828 3.560561 3.579363 15.544291 0.630974 0.000000 -0.000000 0.000002 -1.578835 0.825938 -19.703496 0.405081 2.870986 -21.069214 0.000002 -0.000002 0.000005 0.409503 7.162248 -25.647949 0.416486 2.993238 -22.185349 -0.000001 -0.000000 0.000004 2.386873 10.570844 -32.882368 0.471671 2.115270 -18.421985 0.000000 0.000000 -0.000004 2.967941 13.388249 -36.938910 0.139974 1.667042 -18.441907 0.000001 0.000001 -0.000000 0.572465 3.368493 7.197851 0.000000 0.000000 0.000000 -23.014560 20.036261 54.517224 0.000003 105.501745 0.000001 -15.360238 23.077292 -5.389236 0.789358 -8.211543 -4.825404 0.020111 -13.361249 -9.371031 3.749502 -15.817801 -0.052394 -0.000002 0.000000 -0.000000 -1.070480 -2.247354 17.231252 0.405451 -2.871953 21.079301 -0.000001 0.000001 0.000000 0.438999 -7.256188 26.595145 0.417445 -2.995672 22.211560 -0.000003 -0.000000 -0.000001 2.698252 -11.184226 32.166089 0.472420 -2.116939 18.440362 -0.000003 0.000000 0.000000 4.305376 -16.260310 34.920975 0.139795 -1.666348 18.434710 -0.000003 -0.000000 -0.000002 -85.547955 8.095039 3.801718 91.480904 7.820222 0.405908 15.699036 4.314651 19.129514 -20.066252 -0.536526 2.266519 0.000000 0.000000 -0.000000 -19.848103 2.165028 -7.613965 60.406070 5.260128 0.820711 -35.149438 2.276256 16.381290 -17.492867 0.000000 -0.000000 -0.000000 0.000000 -0.000000 
1.696594 79.932030 26.259571 0.319426 -2.066685 -14.528485 4.825617 7.428048 -0.591891 4.164441 4.140925 0.752282 0.000000 0.000000 0.000000 4.210768 4.034416 0.914154 1.524935 -0.077953 1.938767 -14.628450 12.752697 3.958218 0.000000 -0.000000 -0.000000 0.346230 -0.354004 -1.729432 0.000000 0.000000 0.000000 67.332510 -19.844175 -52.035137 -0.000005 -73.056243 -0.000019 -21.063508 -34.966573 24.978874 5.358058 -0.141371 9.666158 3.545755 27.155823 3.560559 3.579364 15.544291 0.630976 0.000000 0.000002 0.000004 -1.578835 0.825935 -19.703492 0.405082 2.870985 -21.069218 0.000000 0.000000 0.000002 0.409503 7.162240 -25.647951 0.416487 2.993238 -22.185344 -0.000001 -0.000000 0.000002 2.386873 10.570839 -32.882368 0.471673 2.115270 -18.421983 -0.000000 0.000000 -0.000002 2.967941 13.388246 -36.938906 0.139975 1.667046 -18.441907 -0.000000 -0.000001 0.000000 0.591741 3.455525 5.803171 0.000000 0.000000 0.000000 -28.885857 20.146539 54.610115 0.000106 109.781310 -0.000114 -11.356451 22.070675 -7.051889 0.789360 -8.211539 -4.825404 0.020110 -13.361251 -9.371033 3.749504 -15.817803 -0.052391 0.000000 0.000001 0.000002 -1.070481 -2.247358 17.231251 0.405454 -2.871954 21.079301 0.000001 -0.000000 -0.000001 0.438999 -7.256191 26.595143 0.417440 -2.995672 22.211560 0.000003 -0.000000 0.000000 2.698252 -11.184226 32.166089 0.472413 -2.116943 18.440363 -0.000000 0.000000 0.000000 4.305375 -16.260317 34.920978 0.139794 -1.666347 18.434708 -0.000002 -0.000000 -0.000000 -84.702569 7.926787 0.326337 81.424024 8.417424 0.558597 9.919277 5.029176 18.258967 -7.089100 0.000004 -0.000002 0.000001 -0.000000 -0.000001 -11.729768 1.306650 -10.381937 57.102427 4.496644 0.885844 -31.304618 3.024370 20.737402 -29.977803 -0.000000 -0.000003 -0.000001 -0.000000 0.000000 
2.671801 80.564720 35.064175 0.654109 0.177787 -14.033171 4.376138 9.486423 -1.079833 3.806135 4.899888 0.544422 0.000000 0.000000 0.000000 3.854889 4.810089 0.728472 1.851412 -0.666348 2.424845 -13.648605 8.449664 3.560926 -0.000000 -0.000001 -0.000001 0.392767 -1.275070 -0.003537 0.000000 0.000000 0.000000 72.967287 -18.588124 -51.410936 -0.000038 -76.887993 -0.000024 -22.022167 -35.465453 24.553258 5.358057 -0.141367 9.666156 3.545753 27.155826 3.560559 3.579363 15.544290 0.630977 0.000001 -0.000000 0.000000 -1.578835 0.825935 -19.703494 0.405082 2.870990 -21.069214 0.000001 -0.000002 -0.000002 0.409501 7.162245 -25.647946 0.416488 2.993239 -22.185349 0.000001 0.000002 -0.000001 2.386872 10.570844 -32.882365 0.471672 2.115269 -18.421983 0.000000 -0.000000 -0.000001 2.967942 13.388247 -36.938906 0.139974 1.667041 -18.441907 -0.000000 0.000000 0.000001 0.561417 2.815271 4.917625 0.000000 0.000000 0.000000 -32.372679 21.655233 54.937944 0.000001 113.725498 0.000003 -6.339016 20.481688 -8.412876 0.789360 -8.211539 -4.825408 0.020105 -13.361248 -9.371031 3.749502 -15.817799 -0.052398 0.000001 0.000002 0.000001 -1.070479 -2.247356 17.231252 0.405453 -2.871949 21.079304 0.000000 0.000000 -0.000001 0.439000 -7.256188 26.595140 0.417443 -2.995674 22.211560 -0.000003 -0.000000 0.000000 2.698251 -11.184228 32.166089 0.472421 -2.116942 18.440363 0.000005 -0.000000 -0.000000 4.305379 -16.260314 34.920981 0.139791 -1.666348 18.434710 -0.000003 0.000000 -0.000000 -81.766039 7.309541 -3.114225 69.840767 9.076670 0.691666 3.717211 5.639675 17.278341 -5.013440 0.000007 -0.000007 -0.000000 -0.000001 0.000000 -4.342706 0.355836 -12.058592 53.755293 4.077468 0.738218 -24.884939 4.157434 22.672779 -46.318679 0.000003 0.000000 -0.000001 -0.000000 -0.000000 
3.671110 81.059914 43.698128 0.939380 2.139206 -13.711655 3.952112 11.328759 -1.558860 3.412748 5.379267 0.466663 0.000000 0.000000 0.000000 3.461839 5.301502 0.660088 2.107613 -1.139487 2.878899 -12.497857 5.093635 3.145853 0.000001 -0.000002 0.000000 0.474374 -2.032913 1.407750 0.000000 0.000000 0.000000 76.409798 -17.021354 -51.598295 0.000106 -79.763673 0.000104 -23.148361 -35.923534 24.416922 5.358056 -0.141370 9.666158 3.545755 27.155823 3.560561 3.579364 15.544291 0.630975 0.000001 -0.000000 -0.000000 -1.578833 0.825936 -19.703492 0.405083 2.870989 -21.069214 -0.000000 -0.000002 -0.000000 0.409505 7.162245 -25.647949 0.416485 2.993238 -22.185351 0.000001 -0.000000 -0.000001 2.386874 10.570845 -32.882365 0.471671 2.115269 -18.421987 0.000000 -0.000001 0.000000 2.967943 13.388245 -36.938910 0.139973 1.667047 -18.441898 -0.000002 -0.000000 -0.000002 0.489621 1.713299 4.658948 0.000000 0.000000 0.000000 -32.978599 24.476977 55.294534 0.000004 117.020320 -0.000012 -0.751675 18.380632 -8.959726 0.789359 -8.211541 -4.825407 0.020112 -13.361252 -9.371034 3.749505 -15.817805 -0.052397 0.000001 0.000001 0.000000 -1.070483 -2.247357 17.231252 0.405455 -2.871950 21.079304 -0.000000 0.000001 -0.000001 0.438998 -7.256190 26.595143 0.417441 -2.995672 22.211560 -0.000001 0.000001 -0.000000 2.698249 -11.184231 32.166089 0.472418 -2.116941 18.440360 -0.000001 -0.000000 0.000000 4.305372 -16.260314 34.920978 0.139796 -1.666348 18.434710 -0.000002 0.000000 -0.000001 -77.424982 6.232963 -5.961613 57.471322 9.566158 0.798683 -1.460955 6.383420 16.017079 -1.103904 0.000008 -0.000006 -0.000000 0.000001 0.000001 -0.867299 0.212770 -12.602482 54.036321 3.433604 0.629245 -11.738698 6.366996 24.595909 -41.753063 -0.011122 0.690050 0.000000 -0.000001 0.000000 
